<?xml version="1.0" standalone="no"?>
<svg viewBox="0 0 200 200" xmlns="http://www.w3.org/2000/svg">
  <path fill="#F3A13B" d="M34.5,-56.9C45.4,-46.8,55.2,-38.2,59.1,-27.6C63,-17,61,-4.2,61.2,10.3C61.4,24.8,63.8,41,57.5,51.7C51.2,62.3,36.2,67.3,21.8,69.4C7.4,71.4,-6.5,70.5,-17.9,65.2C-29.3,60,-38.2,50.4,-47,40.5C-55.8,30.7,-64.4,20.6,-71.2,7.1C-78,-6.4,-82.9,-23.2,-77.3,-35.2C-71.6,-47.2,-55.5,-54.2,-40.9,-62.7C-26.3,-71.1,-13.1,-80.8,-0.6,-79.8C11.9,-78.9,23.7,-67.1,34.5,-56.9Z" transform="translate(100 100)" />
</svg>
